# xmcd CD database file
#
# Track frame offsets:
#	187
#	19490
#	36725
#	55042
#	72372
#	90300
#	109267
#	126585
#	144752
#	161550
#
# Disc length: 2402 seconds
#
# Revision: 0
# Processed by: cddbd v1.5PL3 Copyright (c) Steve Scherf et al.
# Submitted via: CDex 1.50
#
DISCID=8d09600a
DTITLE=神山純一 - 水の音楽
DYEAR=1993
DGENRE=Instrumental
TTITLE0=水色の幻想 Illusion Of Blue
TTITLE1=ミスティーパストラル Misty Pastoral
TTITLE2=風にゆれる光 Glimmer In The Wind
TTITLE3=スタッカートポルカ Staccato Polka
TTITLE4=ブルーホライゾン Blue Horizen
TTITLE5=スィートラプソディ Sweet Rhapsody
TTITLE6=水のプレリュード Watery Prelude
TTITLE7=愛のロンド Rondo Of Love
TTITLE8=イブニングシャワー Evening Shower
TTITLE9=水の風景 Scenes Of Water
EXTD=YEAR: 1993
EXTT0=
EXTT1=
EXTT2=
EXTT3=
EXTT4=
EXTT5=
EXTT6=
EXTT7=
EXTT8=
EXTT9=
PLAYORDER=
